<?xml version="1.0" encoding="UTF-8" standalone="no"?>
<svg
   xmlns:dc="http://purl.org/dc/elements/1.1/"
   xmlns:cc="http://creativecommons.org/ns#"
   xmlns:rdf="http://www.w3.org/1999/02/22-rdf-syntax-ns#"
   xmlns:svg="http://www.w3.org/2000/svg"
   xmlns="http://www.w3.org/2000/svg"
   xmlns:sodipodi="http://sodipodi.sourceforge.net/DTD/sodipodi-0.dtd"
   xmlns:inkscape="http://www.inkscape.org/namespaces/inkscape"
   version="1.0"
   width="266.1738"
   height="265.30093"
   viewBox="0 0 2661.738 2653.0094"
   preserveAspectRatio="xMidYMid meet"
   id="utterberry-icon"
   sodipodi:docname="utterberry-icon-standard.svg"
   inkscape:version="0.92.3 (2405546, 2018-03-11)">
  <metadata
     id="metadata39">
    <rdf:RDF>
      <cc:Work
         rdf:about="">
        <dc:format>image/svg+xml</dc:format>
        <dc:type
           rdf:resource="http://purl.org/dc/dcmitype/StillImage" />
        <dc:title></dc:title>
      </cc:Work>
    </rdf:RDF>
  </metadata>
  <defs
     id="defs37" />
  <sodipodi:namedview
     pagecolor="#ffffff"
     bordercolor="#666666"
     borderopacity="1"
     objecttolerance="10"
     gridtolerance="10"
     guidetolerance="10"
     inkscape:pageopacity="0"
     inkscape:pageshadow="2"
     inkscape:window-width="3757"
     inkscape:window-height="2097"
     id="namedview35"
     showgrid="false"
     inkscape:zoom="3.0617724"
     inkscape:cx="287.80868"
     inkscape:cy="107.86248"
     inkscape:window-x="83"
     inkscape:window-y="35"
     inkscape:window-maximized="1"
     inkscape:current-layer="layer101" />
  <g
     id="layer101"
     style="opacity:1;fill:#000000;fill-opacity:1;stroke:#000000;stroke-opacity:0"
     transform="translate(-509.15586,-787.49827)">
    <path
       d="m 1090,3425 c -138,-31 -249,-92 -345,-189 -88,-89 -100,-104 -142,-184 -52,-98 -78,-188 -89,-310 -10,-101 -10,-100 82,-90 215,23 401,126 529,293 88,115 147,252 160,375 3,30 8,70 11,88 l 5,32 -78,-1 c -43,-1 -103,-7 -133,-14 z"
       id="path0"
       style="fill:#54009f;fill-opacity:0.94117647;stroke:#000000;stroke-opacity:0"
       inkscape:connector-curvature="0" />
    <path
       d="m 1446,3354 c -31,-413 -353,-771 -765,-849 -42,-8 -97,-15 -123,-15 h -48 v -301 -302 l 113,6 c 246,12 521,106 744,254 393,262 654,713 680,1176 l 6,117 h -300 -300 z"
       id="path1"
       style="fill:#54009f;fill-opacity:0.94117647;stroke:#000000;stroke-opacity:0"
       inkscape:connector-curvature="0" />
    <path
       d="m 2210,3373 c -1,-235 -102,-587 -226,-788 -13,-22 -27,-47 -31,-55 -10,-21 -102,-148 -138,-190 -82,-94 -127,-139 -205,-204 -105,-88 -137,-111 -225,-163 -148,-86 -189,-105 -340,-158 -129,-45 -349,-84 -472,-85 h -63 v -118 c 0,-145 22,-280 61,-375 52,-125 46,-121 153,-112 50,4 154,19 231,35 340,68 659,213 950,433 71,54 336,310 375,362 8,11 31,41 51,65 89,112 205,308 287,486 93,204 165,493 188,755 l 7,77 -69,32 c -118,55 -199,70 -376,70 h -158 z"
       id="path2"
       style="fill:#54009f;fill-opacity:0.94117647;stroke:#000000;stroke-opacity:0"
       inkscape:connector-curvature="0" />
    <path
       d="m 2957,3196 c -4,-10 -7,-32 -7,-49 0,-18 -7,-70 -15,-117 -14,-81 -18,-100 -46,-215 -35,-148 -105,-329 -199,-517 C 2493,1906 2124,1517 1740,1297 1479,1148 1166,1034 905,995 845,985 788,976 780,973 741,961 932,849 1053,812 c 42,-12 127,-16 445,-19 l 394,-5 116,68 c 108,62 350,227 397,270 11,11 45,40 75,66 238,203 462,477 636,778 l 49,85 v 375 c 0,281 -3,390 -14,435 -29,130 -176,379 -194,331 z"
       id="path3"
       style="fill:#54009f;fill-opacity:0.94117647;stroke:#000000;stroke-opacity:0"
       inkscape:connector-curvature="0" />
    <path
       d="m 3147,1721 c -25,-43 -178,-244 -238,-314 -128,-148 -342,-353 -464,-442 -22,-17 -42,-32 -45,-35 -4,-5 -106,-78 -177,-128 -15,-10 15,-12 167,-8 167,3 193,6 263,30 95,32 146,57 212,106 137,101 227,229 275,390 18,61 23,108 28,253 3,97 3,177 1,177 -3,0 -12,-13 -22,-29 z"
       id="path4"
       style="fill:#54009f;fill-opacity:0.94117647;stroke:#000000;stroke-opacity:0"
       inkscape:connector-curvature="0" />
  </g>
</svg>
