{
  "asset": {
    "version": "2.0",
    "generator": "Sketchup glTF Exporter v1.2.6 by Centaur"
  },
  "scene": 0,
  "scenes": [
    {
      "nodes": [
        0
      ]
    }
  ],
  "samplers": [
    {
    }
  ],
  "nodes": [
    {
      "name": "root",
      "children": [
        1,
        2,
        3,
        4,
        5,
        6,
        8,
        10,
        12,
        14
      ]
    },
    {
      "mesh": 0
    },
    {
      "mesh": 1
    },
    {
      "mesh": 2
    },
    {
      "mesh": 3
    },
    {
      "mesh": 4
    },
    {
      "name": "1.) Ground Floor - 3D Print",
      "children": [
        7
      ]
    },
    {
      "mesh": 5
    },
    {
      "name": "2.) First Floor - 3D Print#1",
      "children": [
        9
      ]
    },
    {
      "mesh": 6
    },
    {
      "name": "3.) Second Floor - 3D Print",
      "children": [
        11
      ]
    },
    {
      "mesh": 7
    },
    {
      "name": "4.) Third Floor - 3D Print",
      "children": [
        13
      ]
    },
    {
      "mesh": 8
    },
    {
      "name": "5.) Roof - 3D Print",
      "children": [
        15
      ]
    },
    {
      "mesh": 9
    }
  ],
  "materials": [
    {
      "pbrMetallicRoughness": {
        "baseColorFactor": [
          0.4995,
          0.2845,
          0.9914,
          1.0
        ],
        "metallicFactor": 0.1,
        "roughnessFactor": 0.9
      },
      "name": "Material15"
    },
    {
      "pbrMetallicRoughness": {
        "baseColorFactor": [
          1.0,
          1.0,
          1.0,
          1.0
        ],
        "metallicFactor": 0.1,
        "roughnessFactor": 0.9
      },
      "name": "0128_White"
    },
    {
      "pbrMetallicRoughness": {
        "baseColorFactor": [
          0.2176,
          0.2176,
          0.2176,
          1.0
        ],
        "metallicFactor": 0.1,
        "roughnessFactor": 0.9
      },
      "name": "default material",
      "doubleSided": true
    },
    {
      "pbrMetallicRoughness": {
        "baseColorFactor": [
          0.2195,
          0.2195,
          0.2195,
          0.5
        ],
        "metallicFactor": 0.1,
        "roughnessFactor": 0.9
      },
      "name": "Translucent Glass Gray",
      "doubleSided": true,
      "alphaMode": "BLEND"
    },
    {
      "pbrMetallicRoughness": {
        "baseColorFactor": [
          0.0869,
          0.0,
          0.3112,
          1.0
        ],
        "metallicFactor": 0.1,
        "roughnessFactor": 0.9
      },
      "name": "UtterBerry Purple"
    },
    {
      "pbrMetallicRoughness": {
        "baseColorFactor": [
          0.0111,
          0.0461,
          0.1304,
          1.0
        ],
        "metallicFactor": 0.1,
        "roughnessFactor": 0.9
      },
      "name": "0107_MidnightBlue"
    },
    {
      "pbrMetallicRoughness": {
        "baseColorFactor": [
          0.3587,
          0.0869,
          0.0718,
          1.0
        ],
        "metallicFactor": 0.1,
        "roughnessFactor": 0.9
      },
      "name": "Material2"
    }
  ],
  "meshes": [
    {
      "primitives": [
        {
          "attributes": {
            "POSITION": 0,
            "NORMAL": 1
          },
          "indices": 2,
          "mode": 4,
          "material": 0
        }
      ]
    },
    {
      "primitives": [
        {
          "attributes": {
            "POSITION": 0,
            "NORMAL": 1
          },
          "indices": 3,
          "mode": 4,
          "material": 1
        }
      ]
    },
    {
      "primitives": [
        {
          "attributes": {
            "POSITION": 0,
            "NORMAL": 1
          },
          "indices": 4,
          "mode": 4,
          "material": 1
        }
      ]
    },
    {
      "primitives": [
        {
          "attributes": {
            "POSITION": 0,
            "NORMAL": 1
          },
          "indices": 5,
          "mode": 4,
          "material": 1
        }
      ]
    },
    {
      "primitives": [
        {
          "attributes": {
            "POSITION": 0,
            "NORMAL": 1
          },
          "indices": 6,
          "mode": 4,
          "material": 1
        }
      ]
    },
    {
      "primitives": [
        {
          "attributes": {
            "POSITION": 0,
            "NORMAL": 1
          },
          "indices": 7,
          "mode": 4,
          "material": 2
        },
        {
          "attributes": {
            "POSITION": 0,
            "NORMAL": 1
          },
          "indices": 8,
          "mode": 4,
          "material": 3
        },
        {
          "attributes": {
            "POSITION": 0,
            "NORMAL": 1
          },
          "indices": 9,
          "mode": 4,
          "material": 4
        }
      ]
    },
    {
      "primitives": [
        {
          "attributes": {
            "POSITION": 0,
            "NORMAL": 1
          },
          "indices": 10,
          "mode": 4,
          "material": 2
        },
        {
          "attributes": {
            "POSITION": 0,
            "NORMAL": 1
          },
          "indices": 11,
          "mode": 4,
          "material": 3
        },
        {
          "attributes": {
            "POSITION": 0,
            "NORMAL": 1
          },
          "indices": 12,
          "mode": 4,
          "material": 4
        }
      ]
    },
    {
      "primitives": [
        {
          "attributes": {
            "POSITION": 0,
            "NORMAL": 1
          },
          "indices": 13,
          "mode": 4,
          "material": 2
        },
        {
          "attributes": {
            "POSITION": 0,
            "NORMAL": 1
          },
          "indices": 14,
          "mode": 4,
          "material": 3
        },
        {
          "attributes": {
            "POSITION": 0,
            "NORMAL": 1
          },
          "indices": 15,
          "mode": 4,
          "material": 4
        }
      ]
    },
    {
      "primitives": [
        {
          "attributes": {
            "POSITION": 0,
            "NORMAL": 1
          },
          "indices": 16,
          "mode": 4,
          "material": 2
        },
        {
          "attributes": {
            "POSITION": 0,
            "NORMAL": 1
          },
          "indices": 17,
          "mode": 4,
          "material": 3
        },
        {
          "attributes": {
            "POSITION": 0,
            "NORMAL": 1
          },
          "indices": 18,
          "mode": 4,
          "material": 4
        }
      ]
    },
    {
      "primitives": [
        {
          "attributes": {
            "POSITION": 0,
            "NORMAL": 1
          },
          "indices": 19,
          "mode": 4,
          "material": 5
        },
        {
          "attributes": {
            "POSITION": 0,
            "NORMAL": 1
          },
          "indices": 20,
          "mode": 4,
          "material": 6
        }
      ]
    }
  ],
  "accessors": [
    {
      "bufferView": 0,
      "componentType": 5126,
      "count": 15862,
      "type": "VEC3",
      "min": [
        -0.24111206657133852,
        -0.1080000000000065,
        -0.22931878861854363
      ],
      "max": [
        0.30839906941188555,
        0.13236589587577455,
        0.19478254358474104
      ]
    },
    {
      "bufferView": 1,
      "componentType": 5126,
      "count": 15862,
      "type": "VEC3",
      "min": [
        -1.0,
        -1.0,
        -1.0
      ],
      "max": [
        1.0,
        1.0,
        1.0
      ]
    },
    {
      "bufferView": 2,
      "componentType": 5123,
      "count": 1284,
      "type": "SCALAR"
    },
    {
      "bufferView": 2,
      "componentType": 5123,
      "count": 468,
      "type": "SCALAR",
      "byteOffset": 2568
    },
    {
      "bufferView": 2,
      "componentType": 5123,
      "count": 468,
      "type": "SCALAR",
      "byteOffset": 3504
    },
    {
      "bufferView": 2,
      "componentType": 5123,
      "count": 468,
      "type": "SCALAR",
      "byteOffset": 4440
    },
    {
      "bufferView": 2,
      "componentType": 5123,
      "count": 468,
      "type": "SCALAR",
      "byteOffset": 5376
    },
    {
      "bufferView": 2,
      "componentType": 5123,
      "count": 9381,
      "type": "SCALAR",
      "byteOffset": 6312
    },
    {
      "bufferView": 2,
      "componentType": 5123,
      "count": 705,
      "type": "SCALAR",
      "byteOffset": 25074
    },
    {
      "bufferView": 2,
      "componentType": 5123,
      "count": 18,
      "type": "SCALAR",
      "byteOffset": 26484
    },
    {
      "bufferView": 2,
      "componentType": 5123,
      "count": 6774,
      "type": "SCALAR",
      "byteOffset": 26520
    },
    {
      "bufferView": 2,
      "componentType": 5123,
      "count": 660,
      "type": "SCALAR",
      "byteOffset": 40068
    },
    {
      "bufferView": 2,
      "componentType": 5123,
      "count": 18,
      "type": "SCALAR",
      "byteOffset": 41388
    },
    {
      "bufferView": 2,
      "componentType": 5123,
      "count": 7146,
      "type": "SCALAR",
      "byteOffset": 41424
    },
    {
      "bufferView": 2,
      "componentType": 5123,
      "count": 735,
      "type": "SCALAR",
      "byteOffset": 55716
    },
    {
      "bufferView": 2,
      "componentType": 5123,
      "count": 18,
      "type": "SCALAR",
      "byteOffset": 57186
    },
    {
      "bufferView": 2,
      "componentType": 5123,
      "count": 6180,
      "type": "SCALAR",
      "byteOffset": 57222
    },
    {
      "bufferView": 2,
      "componentType": 5123,
      "count": 666,
      "type": "SCALAR",
      "byteOffset": 69582
    },
    {
      "bufferView": 2,
      "componentType": 5123,
      "count": 18,
      "type": "SCALAR",
      "byteOffset": 70914
    },
    {
      "bufferView": 2,
      "componentType": 5123,
      "count": 234,
      "type": "SCALAR",
      "byteOffset": 70950
    },
    {
      "bufferView": 2,
      "componentType": 5123,
      "count": 1638,
      "type": "SCALAR",
      "byteOffset": 71418
    }
  ],
  "bufferViews": [
    {
      "buffer": 0,
      "byteLength": 190344,
      "target": 34962,
      "byteStride": 12
    },
    {
      "buffer": 0,
      "byteOffset": 190344,
      "byteLength": 190344,
      "target": 34962,
      "byteStride": 12
    },
    {
      "buffer": 0,
      "byteOffset": 380688,
      "byteLength": 74694,
      "target": 34963
    }
  ],
  "buffers": [
    {
      "uri": "data:application/octet-stream;base64,",
      "byteLength": 455382
    }
  ]
}