{
  "asset": {
    "version": "2.0",
    "generator": "Sketchup glTF Exporter v1.2.6 by Centaur"
  },
  "scene": 0,
  "scenes": [
    {
      "nodes": [
        0
      ]
    }
  ],
  "samplers": [
    {
    }
  ],
  "nodes": [
    {
      "name": "root",
      "children": [
        1,
        2,
        3,
        5,
        6,
        7,
        8,
        9,
        10,
        11,
        12,
        13,
        14,
        15,
        16,
        17,
        18,
        19,
        20,
        21,
        22,
        23,
        24,
        25,
        26,
        27,
        28,
        29,
        30,
        31,
        32,
        33,
        34,
        35,
        36,
        37,
        38,
        39,
        40,
        41,
        42,
        43,
        44,
        45
      ],
      "mesh": 45
    },
    {
      "name": "tunnel",
      "mesh": 0
    },
    {
      "name": "yorkshire-map",
      "mesh": 1
    },
    {
      "name": "leeds-building",
      "children": [
        4
      ],
      "mesh": 3
    },
    {
      "mesh": 2
    },
    {
      "name": "led-2",
      "mesh": 4
    },
    {
      "name": "led-5",
      "mesh": 5
    },
    {
      "name": "led-6",
      "mesh": 6
    },
    {
      "name": "led-7",
      "mesh": 7
    },
    {
      "name": "led-9",
      "mesh": 8
    },
    {
      "name": "led-10",
      "mesh": 9
    },
    {
      "name": "led-12",
      "mesh": 10
    },
    {
      "name": "led-13",
      "mesh": 11
    },
    {
      "name": "led-15",
      "mesh": 12
    },
    {
      "name": "led-16",
      "mesh": 13
    },
    {
      "name": "led-17",
      "mesh": 14
    },
    {
      "name": "led-18",
      "mesh": 15
    },
    {
      "name": "led-19",
      "mesh": 16
    },
    {
      "name": "led-20",
      "mesh": 17
    },
    {
      "name": "led-21",
      "mesh": 18
    },
    {
      "name": "led-22",
      "mesh": 19
    },
    {
      "name": "led-23",
      "mesh": 20
    },
    {
      "name": "led-24",
      "mesh": 21
    },
    {
      "name": "led-25",
      "mesh": 22
    },
    {
      "name": "led-27",
      "mesh": 23
    },
    {
      "name": "led-28",
      "mesh": 24
    },
    {
      "name": "led-29",
      "mesh": 25
    },
    {
      "name": "led-30",
      "mesh": 26
    },
    {
      "name": "led-31",
      "mesh": 27
    },
    {
      "name": "led-32",
      "mesh": 28
    },
    {
      "name": "led-33",
      "mesh": 29
    },
    {
      "name": "led-34",
      "mesh": 30
    },
    {
      "name": "led-37",
      "mesh": 31
    },
    {
      "name": "led-36",
      "mesh": 32
    },
    {
      "name": "led-35",
      "mesh": 33
    },
    {
      "name": "led-38",
      "mesh": 34
    },
    {
      "name": "led-39",
      "mesh": 35
    },
    {
      "name": "led-40",
      "mesh": 36
    },
    {
      "name": "led-41",
      "mesh": 37
    },
    {
      "name": "led-43",
      "mesh": 38
    },
    {
      "name": "led-44",
      "mesh": 39
    },
    {
      "name": "led-45",
      "mesh": 40
    },
    {
      "name": "led-46",
      "mesh": 41
    },
    {
      "name": "led-47",
      "mesh": 42
    },
    {
      "name": "led-48",
      "mesh": 43
    },
    {
      "name": "led-49",
      "mesh": 44
    }
  ],
  "materials": [
    {
      "pbrMetallicRoughness": {
        "baseColorFactor": [
          0.0356,
          0.0111,
          0.0055,
          1.0
        ],
        "metallicFactor": 0.1,
        "roughnessFactor": 0.9
      },
      "name": "Tunnel Dark Brown"
    },
    {
      "pbrMetallicRoughness": {
        "baseColorFactor": [
          0.3838,
          0.1062,
          0.0478,
          1.0
        ],
        "metallicFactor": 0.1,
        "roughnessFactor": 0.9
      },
      "name": "Tunnel Light Brown"
    },
    {
      "pbrMetallicRoughness": {
        "baseColorFactor": [
          0.4995,
          0.2845,
          0.9914,
          1.0
        ],
        "metallicFactor": 0.1,
        "roughnessFactor": 0.9
      },
      "name": "Material15"
    },
    {
      "pbrMetallicRoughness": {
        "baseColorFactor": [
          0.0,
          0.0,
          0.0,
          1.0
        ],
        "metallicFactor": 0.1,
        "roughnessFactor": 0.9
      },
      "name": "Black"
    },
    {
      "pbrMetallicRoughness": {
        "baseColorFactor": [
          0.2195,
          0.2195,
          0.2195,
          0.8
        ],
        "metallicFactor": 0.1,
        "roughnessFactor": 0.9
      },
      "name": "Translucent Glass Gray",
      "doubleSided": true,
      "alphaMode": "BLEND"
    },
    {
      "pbrMetallicRoughness": {
        "baseColorFactor": [
          0.586,
          0.1011,
          0.0824,
          1.0
        ],
        "metallicFactor": 0.1,
        "roughnessFactor": 0.9
      },
      "name": "0021_DarkRed"
    },
    {
      "pbrMetallicRoughness": {
        "baseColorFactor": [
          0.0111,
          0.0461,
          0.1304,
          1.0
        ],
        "metallicFactor": 0.1,
        "roughnessFactor": 0.9
      },
      "name": "0107_MidnightBlue",
      "doubleSided": true
    }
  ],
  "meshes": [
    {
      "primitives": [
        {
          "attributes": {
            "POSITION": 0,
            "NORMAL": 1
          },
          "indices": 2,
          "mode": 4,
          "material": 0
        },
        {
          "attributes": {
            "POSITION": 0,
            "NORMAL": 1
          },
          "indices": 3,
          "mode": 4,
          "material": 1
        }
      ]
    },
    {
      "primitives": [
        {
          "attributes": {
            "POSITION": 0,
            "NORMAL": 1
          },
          "indices": 4,
          "mode": 4,
          "material": 2
        },
        {
          "attributes": {
            "POSITION": 0,
            "NORMAL": 1
          },
          "indices": 5,
          "mode": 4,
          "material": 3
        }
      ]
    },
    {
      "primitives": [
        {
          "attributes": {
            "POSITION": 0,
            "NORMAL": 1
          },
          "indices": 6,
          "mode": 4,
          "material": 6
        }
      ]
    },
    {
      "primitives": [
        {
          "attributes": {
            "POSITION": 0,
            "NORMAL": 1
          },
          "indices": 7,
          "mode": 4,
          "material": 5
        }
      ]
    },
    {
      "primitives": [
        {
          "attributes": {
            "POSITION": 0,
            "NORMAL": 1
          },
          "indices": 8,
          "mode": 4,
          "material": 4
        }
      ]
    },
    {
      "primitives": [
        {
          "attributes": {
            "POSITION": 0,
            "NORMAL": 1
          },
          "indices": 9,
          "mode": 4,
          "material": 4
        }
      ]
    },
    {
      "primitives": [
        {
          "attributes": {
            "POSITION": 0,
            "NORMAL": 1
          },
          "indices": 10,
          "mode": 4,
          "material": 4
        }
      ]
    },
    {
      "primitives": [
        {
          "attributes": {
            "POSITION": 0,
            "NORMAL": 1
          },
          "indices": 11,
          "mode": 4,
          "material": 4
        }
      ]
    },
    {
      "primitives": [
        {
          "attributes": {
            "POSITION": 0,
            "NORMAL": 1
          },
          "indices": 12,
          "mode": 4,
          "material": 4
        }
      ]
    },
    {
      "primitives": [
        {
          "attributes": {
            "POSITION": 0,
            "NORMAL": 1
          },
          "indices": 13,
          "mode": 4,
          "material": 4
        }
      ]
    },
    {
      "primitives": [
        {
          "attributes": {
            "POSITION": 0,
            "NORMAL": 1
          },
          "indices": 14,
          "mode": 4,
          "material": 4
        }
      ]
    },
    {
      "primitives": [
        {
          "attributes": {
            "POSITION": 0,
            "NORMAL": 1
          },
          "indices": 15,
          "mode": 4,
          "material": 4
        }
      ]
    },
    {
      "primitives": [
        {
          "attributes": {
            "POSITION": 0,
            "NORMAL": 1
          },
          "indices": 16,
          "mode": 4,
          "material": 4
        }
      ]
    },
    {
      "primitives": [
        {
          "attributes": {
            "POSITION": 0,
            "NORMAL": 1
          },
          "indices": 17,
          "mode": 4,
          "material": 4
        }
      ]
    },
    {
      "primitives": [
        {
          "attributes": {
            "POSITION": 0,
            "NORMAL": 1
          },
          "indices": 18,
          "mode": 4,
          "material": 4
        }
      ]
    },
    {
      "primitives": [
        {
          "attributes": {
            "POSITION": 0,
            "NORMAL": 1
          },
          "indices": 19,
          "mode": 4,
          "material": 4
        }
      ]
    },
    {
      "primitives": [
        {
          "attributes": {
            "POSITION": 0,
            "NORMAL": 1
          },
          "indices": 20,
          "mode": 4,
          "material": 4
        }
      ]
    },
    {
      "primitives": [
        {
          "attributes": {
            "POSITION": 0,
            "NORMAL": 1
          },
          "indices": 21,
          "mode": 4,
          "material": 4
        }
      ]
    },
    {
      "primitives": [
        {
          "attributes": {
            "POSITION": 0,
            "NORMAL": 1
          },
          "indices": 22,
          "mode": 4,
          "material": 4
        }
      ]
    },
    {
      "primitives": [
        {
          "attributes": {
            "POSITION": 0,
            "NORMAL": 1
          },
          "indices": 23,
          "mode": 4,
          "material": 4
        }
      ]
    },
    {
      "primitives": [
        {
          "attributes": {
            "POSITION": 0,
            "NORMAL": 1
          },
          "indices": 24,
          "mode": 4,
          "material": 4
        }
      ]
    },
    {
      "primitives": [
        {
          "attributes": {
            "POSITION": 0,
            "NORMAL": 1
          },
          "indices": 25,
          "mode": 4,
          "material": 4
        }
      ]
    },
    {
      "primitives": [
        {
          "attributes": {
            "POSITION": 0,
            "NORMAL": 1
          },
          "indices": 26,
          "mode": 4,
          "material": 4
        }
      ]
    },
    {
      "primitives": [
        {
          "attributes": {
            "POSITION": 0,
            "NORMAL": 1
          },
          "indices": 27,
          "mode": 4,
          "material": 4
        }
      ]
    },
    {
      "primitives": [
        {
          "attributes": {
            "POSITION": 0,
            "NORMAL": 1
          },
          "indices": 28,
          "mode": 4,
          "material": 4
        }
      ]
    },
    {
      "primitives": [
        {
          "attributes": {
            "POSITION": 0,
            "NORMAL": 1
          },
          "indices": 29,
          "mode": 4,
          "material": 4
        }
      ]
    },
    {
      "primitives": [
        {
          "attributes": {
            "POSITION": 0,
            "NORMAL": 1
          },
          "indices": 30,
          "mode": 4,
          "material": 4
        }
      ]
    },
    {
      "primitives": [
        {
          "attributes": {
            "POSITION": 0,
            "NORMAL": 1
          },
          "indices": 31,
          "mode": 4,
          "material": 4
        }
      ]
    },
    {
      "primitives": [
        {
          "attributes": {
            "POSITION": 0,
            "NORMAL": 1
          },
          "indices": 32,
          "mode": 4,
          "material": 4
        }
      ]
    },
    {
      "primitives": [
        {
          "attributes": {
            "POSITION": 0,
            "NORMAL": 1
          },
          "indices": 33,
          "mode": 4,
          "material": 4
        }
      ]
    },
    {
      "primitives": [
        {
          "attributes": {
            "POSITION": 0,
            "NORMAL": 1
          },
          "indices": 34,
          "mode": 4,
          "material": 4
        }
      ]
    },
    {
      "primitives": [
        {
          "attributes": {
            "POSITION": 0,
            "NORMAL": 1
          },
          "indices": 35,
          "mode": 4,
          "material": 4
        }
      ]
    },
    {
      "primitives": [
        {
          "attributes": {
            "POSITION": 0,
            "NORMAL": 1
          },
          "indices": 36,
          "mode": 4,
          "material": 4
        }
      ]
    },
    {
      "primitives": [
        {
          "attributes": {
            "POSITION": 0,
            "NORMAL": 1
          },
          "indices": 37,
          "mode": 4,
          "material": 4
        }
      ]
    },
    {
      "primitives": [
        {
          "attributes": {
            "POSITION": 0,
            "NORMAL": 1
          },
          "indices": 38,
          "mode": 4,
          "material": 4
        }
      ]
    },
    {
      "primitives": [
        {
          "attributes": {
            "POSITION": 0,
            "NORMAL": 1
          },
          "indices": 39,
          "mode": 4,
          "material": 4
        }
      ]
    },
    {
      "primitives": [
        {
          "attributes": {
            "POSITION": 0,
            "NORMAL": 1
          },
          "indices": 40,
          "mode": 4,
          "material": 4
        }
      ]
    },
    {
      "primitives": [
        {
          "attributes": {
            "POSITION": 0,
            "NORMAL": 1
          },
          "indices": 41,
          "mode": 4,
          "material": 4
        }
      ]
    },
    {
      "primitives": [
        {
          "attributes": {
            "POSITION": 0,
            "NORMAL": 1
          },
          "indices": 42,
          "mode": 4,
          "material": 4
        }
      ]
    },
    {
      "primitives": [
        {
          "attributes": {
            "POSITION": 0,
            "NORMAL": 1
          },
          "indices": 43,
          "mode": 4,
          "material": 4
        }
      ]
    },
    {
      "primitives": [
        {
          "attributes": {
            "POSITION": 0,
            "NORMAL": 1
          },
          "indices": 44,
          "mode": 4,
          "material": 4
        }
      ]
    },
    {
      "primitives": [
        {
          "attributes": {
            "POSITION": 0,
            "NORMAL": 1
          },
          "indices": 45,
          "mode": 4,
          "material": 4
        }
      ]
    },
    {
      "primitives": [
        {
          "attributes": {
            "POSITION": 0,
            "NORMAL": 1
          },
          "indices": 46,
          "mode": 4,
          "material": 4
        }
      ]
    },
    {
      "primitives": [
        {
          "attributes": {
            "POSITION": 0,
            "NORMAL": 1
          },
          "indices": 47,
          "mode": 4,
          "material": 4
        }
      ]
    },
    {
      "primitives": [
        {
          "attributes": {
            "POSITION": 0,
            "NORMAL": 1
          },
          "indices": 48,
          "mode": 4,
          "material": 4
        }
      ]
    },
    {
      "primitives": [
        {
          "attributes": {
            "POSITION": 0,
            "NORMAL": 1
          },
          "indices": 49,
          "mode": 4,
          "material": 4
        }
      ]
    }
  ],
  "accessors": [
    {
      "bufferView": 0,
      "componentType": 5126,
      "count": 18330,
      "type": "VEC3",
      "min": [
        0.571466749494127,
        0.0006786876378024973,
        -1.388748537368293
      ],
      "max": [
        1.120977885477351,
        0.23304458351279256,
        -0.9646472051650086
      ]
    },
    {
      "bufferView": 1,
      "componentType": 5126,
      "count": 18330,
      "type": "VEC3",
      "min": [
        -0.9999710318948523,
        -1.0,
        -0.999593922969415
      ],
      "max": [
        0.9999905601321705,
        1.0,
        0.9999903843481938
      ]
    },
    {
      "bufferView": 2,
      "componentType": 5123,
      "count": 2532,
      "type": "SCALAR"
    },
    {
      "bufferView": 2,
      "componentType": 5123,
      "count": 618,
      "type": "SCALAR",
      "byteOffset": 5064
    },
    {
      "bufferView": 2,
      "componentType": 5123,
      "count": 636,
      "type": "SCALAR",
      "byteOffset": 6300
    },
    {
      "bufferView": 2,
      "componentType": 5123,
      "count": 648,
      "type": "SCALAR",
      "byteOffset": 7572
    },
    {
      "bufferView": 2,
      "componentType": 5123,
      "count": 462,
      "type": "SCALAR",
      "byteOffset": 8868
    },
    {
      "bufferView": 2,
      "componentType": 5123,
      "count": 29139,
      "type": "SCALAR",
      "byteOffset": 9792
    },
    {
      "bufferView": 2,
      "componentType": 5123,
      "count": 252,
      "type": "SCALAR",
      "byteOffset": 68070
    },
    {
      "bufferView": 2,
      "componentType": 5123,
      "count": 408,
      "type": "SCALAR",
      "byteOffset": 68574
    },
    {
      "bufferView": 2,
      "componentType": 5123,
      "count": 336,
      "type": "SCALAR",
      "byteOffset": 69390
    },
    {
      "bufferView": 2,
      "componentType": 5123,
      "count": 276,
      "type": "SCALAR",
      "byteOffset": 70062
    },
    {
      "bufferView": 2,
      "componentType": 5123,
      "count": 192,
      "type": "SCALAR",
      "byteOffset": 70614
    },
    {
      "bufferView": 2,
      "componentType": 5123,
      "count": 168,
      "type": "SCALAR",
      "byteOffset": 70998
    },
    {
      "bufferView": 2,
      "componentType": 5123,
      "count": 228,
      "type": "SCALAR",
      "byteOffset": 71334
    },
    {
      "bufferView": 2,
      "componentType": 5123,
      "count": 456,
      "type": "SCALAR",
      "byteOffset": 71790
    },
    {
      "bufferView": 2,
      "componentType": 5123,
      "count": 222,
      "type": "SCALAR",
      "byteOffset": 72702
    },
    {
      "bufferView": 2,
      "componentType": 5123,
      "count": 42,
      "type": "SCALAR",
      "byteOffset": 73146
    },
    {
      "bufferView": 2,
      "componentType": 5123,
      "count": 84,
      "type": "SCALAR",
      "byteOffset": 73230
    },
    {
      "bufferView": 2,
      "componentType": 5123,
      "count": 24,
      "type": "SCALAR",
      "byteOffset": 73398
    },
    {
      "bufferView": 2,
      "componentType": 5123,
      "count": 42,
      "type": "SCALAR",
      "byteOffset": 73446
    },
    {
      "bufferView": 2,
      "componentType": 5123,
      "count": 42,
      "type": "SCALAR",
      "byteOffset": 73530
    },
    {
      "bufferView": 2,
      "componentType": 5123,
      "count": 57,
      "type": "SCALAR",
      "byteOffset": 73614
    },
    {
      "bufferView": 2,
      "componentType": 5123,
      "count": 93,
      "type": "SCALAR",
      "byteOffset": 73728
    },
    {
      "bufferView": 2,
      "componentType": 5123,
      "count": 204,
      "type": "SCALAR",
      "byteOffset": 73914
    },
    {
      "bufferView": 2,
      "componentType": 5123,
      "count": 204,
      "type": "SCALAR",
      "byteOffset": 74322
    },
    {
      "bufferView": 2,
      "componentType": 5123,
      "count": 720,
      "type": "SCALAR",
      "byteOffset": 74730
    },
    {
      "bufferView": 2,
      "componentType": 5123,
      "count": 45,
      "type": "SCALAR",
      "byteOffset": 76170
    },
    {
      "bufferView": 2,
      "componentType": 5123,
      "count": 90,
      "type": "SCALAR",
      "byteOffset": 76260
    },
    {
      "bufferView": 2,
      "componentType": 5123,
      "count": 45,
      "type": "SCALAR",
      "byteOffset": 76440
    },
    {
      "bufferView": 2,
      "componentType": 5123,
      "count": 45,
      "type": "SCALAR",
      "byteOffset": 76530
    },
    {
      "bufferView": 2,
      "componentType": 5123,
      "count": 24,
      "type": "SCALAR",
      "byteOffset": 76620
    },
    {
      "bufferView": 2,
      "componentType": 5123,
      "count": 90,
      "type": "SCALAR",
      "byteOffset": 76668
    },
    {
      "bufferView": 2,
      "componentType": 5123,
      "count": 96,
      "type": "SCALAR",
      "byteOffset": 76848
    },
    {
      "bufferView": 2,
      "componentType": 5123,
      "count": 42,
      "type": "SCALAR",
      "byteOffset": 77040
    },
    {
      "bufferView": 2,
      "componentType": 5123,
      "count": 741,
      "type": "SCALAR",
      "byteOffset": 77124
    },
    {
      "bufferView": 2,
      "componentType": 5123,
      "count": 381,
      "type": "SCALAR",
      "byteOffset": 78606
    },
    {
      "bufferView": 2,
      "componentType": 5123,
      "count": 381,
      "type": "SCALAR",
      "byteOffset": 79368
    },
    {
      "bufferView": 2,
      "componentType": 5123,
      "count": 192,
      "type": "SCALAR",
      "byteOffset": 80130
    },
    {
      "bufferView": 2,
      "componentType": 5123,
      "count": 192,
      "type": "SCALAR",
      "byteOffset": 80514
    },
    {
      "bufferView": 2,
      "componentType": 5123,
      "count": 192,
      "type": "SCALAR",
      "byteOffset": 80898
    },
    {
      "bufferView": 2,
      "componentType": 5123,
      "count": 384,
      "type": "SCALAR",
      "byteOffset": 81282
    },
    {
      "bufferView": 2,
      "componentType": 5123,
      "count": 45,
      "type": "SCALAR",
      "byteOffset": 82050
    },
    {
      "bufferView": 2,
      "componentType": 5123,
      "count": 45,
      "type": "SCALAR",
      "byteOffset": 82140
    },
    {
      "bufferView": 2,
      "componentType": 5123,
      "count": 51,
      "type": "SCALAR",
      "byteOffset": 82230
    },
    {
      "bufferView": 2,
      "componentType": 5123,
      "count": 45,
      "type": "SCALAR",
      "byteOffset": 82332
    },
    {
      "bufferView": 2,
      "componentType": 5123,
      "count": 45,
      "type": "SCALAR",
      "byteOffset": 82422
    },
    {
      "bufferView": 2,
      "componentType": 5123,
      "count": 720,
      "type": "SCALAR",
      "byteOffset": 82512
    },
    {
      "bufferView": 2,
      "componentType": 5123,
      "count": 678,
      "type": "SCALAR",
      "byteOffset": 83952
    },
    {
      "bufferView": 2,
      "componentType": 5123,
      "count": 813,
      "type": "SCALAR",
      "byteOffset": 85308
    }
  ],
  "bufferViews": [
    {
      "buffer": 0,
      "byteLength": 219960,
      "target": 34962,
      "byteStride": 12
    },
    {
      "buffer": 0,
      "byteOffset": 219960,
      "byteLength": 219960,
      "target": 34962,
      "byteStride": 12
    },
    {
      "buffer": 0,
      "byteOffset": 439920,
      "byteLength": 86934,
      "target": 34963
    }
  ],
  "buffers": [
    {
      "uri": "data:application/octet-stream;base64,",
      "byteLength": 526854
    }
  ]
}