{
  "asset": {
    "version": "2.0",
    "generator": "Sketchup glTF Exporter v1.2.6 by Centaur"
  },
  "scene": 0,
  "scenes": [
    {
      "nodes": [
        0
      ]
    }
  ],
  "samplers": [
    {
    }
  ],
  "nodes": [
    {
      "name": "root",
      "children": [
        1,
        2,
        3,
        4,
        5
      ],
      "mesh": 6
    },
    {
      "name": "tunnel",
      "mesh": 0
    },
    {
      "name": "yorkshire-map",
      "mesh": 1
    },
    {
      "name": "window-1",
      "mesh": 2
    },
    {
      "name": "window-4",
      "mesh": 3
    },
    {
      "name": "leeds-building",
      "children": [
        6
      ],
      "mesh": 5
    },
    {
      "mesh": 4
    }
  ],
  "materials": [
    {
      "pbrMetallicRoughness": {
        "baseColorFactor": [
          0.0356,
          0.0111,
          0.0055,
          1.0
        ],
        "metallicFactor": 0.1,
        "roughnessFactor": 0.9
      },
      "name": "Tunnel Dark Brown"
    },
    {
      "pbrMetallicRoughness": {
        "baseColorFactor": [
          0.3838,
          0.1062,
          0.0478,
          1.0
        ],
        "metallicFactor": 0.1,
        "roughnessFactor": 0.9
      },
      "name": "Tunnel Light Brown"
    },
    {
      "pbrMetallicRoughness": {
        "baseColorFactor": [
          0.4995,
          0.2845,
          0.9914,
          1.0
        ],
        "metallicFactor": 0.1,
        "roughnessFactor": 0.9
      },
      "name": "Material15"
    },
    {
      "pbrMetallicRoughness": {
        "baseColorFactor": [
          0.2195,
          0.2195,
          0.2195,
          0.8
        ],
        "metallicFactor": 0.1,
        "roughnessFactor": 0.9
      },
      "name": "Translucent Glass Gray",
      "doubleSided": true,
      "alphaMode": "BLEND"
    },
    {
      "pbrMetallicRoughness": {
        "baseColorFactor": [
          0.2176,
          0.2176,
          0.2176,
          1.0
        ],
        "metallicFactor": 0.1,
        "roughnessFactor": 0.9
      },
      "name": "default material",
      "doubleSided": true
    },
    {
      "pbrMetallicRoughness": {
        "baseColorFactor": [
          0.586,
          0.1011,
          0.0824,
          1.0
        ],
        "metallicFactor": 0.1,
        "roughnessFactor": 0.9
      },
      "name": "0021_DarkRed"
    },
    {
      "pbrMetallicRoughness": {
        "baseColorFactor": [
          0.0111,
          0.0461,
          0.1304,
          1.0
        ],
        "metallicFactor": 0.1,
        "roughnessFactor": 0.9
      },
      "name": "0107_MidnightBlue",
      "doubleSided": true
    }
  ],
  "meshes": [
    {
      "primitives": [
        {
          "attributes": {
            "POSITION": 0,
            "NORMAL": 1
          },
          "indices": 2,
          "mode": 4,
          "material": 0
        },
        {
          "attributes": {
            "POSITION": 0,
            "NORMAL": 1
          },
          "indices": 3,
          "mode": 4,
          "material": 1
        }
      ]
    },
    {
      "primitives": [
        {
          "attributes": {
            "POSITION": 0,
            "NORMAL": 1
          },
          "indices": 4,
          "mode": 4,
          "material": 2
        }
      ]
    },
    {
      "primitives": [
        {
          "attributes": {
            "POSITION": 0,
            "NORMAL": 1
          },
          "indices": 5,
          "mode": 4,
          "material": 3
        }
      ]
    },
    {
      "primitives": [
        {
          "attributes": {
            "POSITION": 0,
            "NORMAL": 1
          },
          "indices": 6,
          "mode": 4,
          "material": 3
        }
      ]
    },
    {
      "primitives": [
        {
          "attributes": {
            "POSITION": 0,
            "NORMAL": 1
          },
          "indices": 7,
          "mode": 4,
          "material": 6
        }
      ]
    },
    {
      "primitives": [
        {
          "attributes": {
            "POSITION": 0,
            "NORMAL": 1
          },
          "indices": 8,
          "mode": 4,
          "material": 5
        }
      ]
    },
    {
      "primitives": [
        {
          "attributes": {
            "POSITION": 0,
            "NORMAL": 1
          },
          "indices": 9,
          "mode": 4,
          "material": 3
        },
        {
          "attributes": {
            "POSITION": 0,
            "NORMAL": 1
          },
          "indices": 10,
          "mode": 4,
          "material": 4
        }
      ]
    }
  ],
  "accessors": [
    {
      "bufferView": 0,
      "componentType": 5126,
      "count": 16300,
      "type": "VEC3",
      "min": [
        0.571466749494127,
        0.0006786876378024973,
        -1.388748537368293
      ],
      "max": [
        1.120977885477351,
        0.23304458351279256,
        -0.9646472051650086
      ]
    },
    {
      "bufferView": 1,
      "componentType": 5126,
      "count": 16300,
      "type": "VEC3",
      "min": [
        -0.9999710318948523,
        -1.0,
        -0.999593922969415
      ],
      "max": [
        0.9999905601321705,
        1.0,
        0.9999903843481938
      ]
    },
    {
      "bufferView": 2,
      "componentType": 5123,
      "count": 2532,
      "type": "SCALAR"
    },
    {
      "bufferView": 2,
      "componentType": 5123,
      "count": 618,
      "type": "SCALAR",
      "byteOffset": 5064
    },
    {
      "bufferView": 2,
      "componentType": 5123,
      "count": 1284,
      "type": "SCALAR",
      "byteOffset": 6300
    },
    {
      "bufferView": 2,
      "componentType": 5123,
      "count": 228,
      "type": "SCALAR",
      "byteOffset": 8868
    },
    {
      "bufferView": 2,
      "componentType": 5123,
      "count": 228,
      "type": "SCALAR",
      "byteOffset": 9324
    },
    {
      "bufferView": 2,
      "componentType": 5123,
      "count": 462,
      "type": "SCALAR",
      "byteOffset": 9780
    },
    {
      "bufferView": 2,
      "componentType": 5123,
      "count": 29139,
      "type": "SCALAR",
      "byteOffset": 10704
    },
    {
      "bufferView": 2,
      "componentType": 5123,
      "count": 4908,
      "type": "SCALAR",
      "byteOffset": 68982
    },
    {
      "bufferView": 2,
      "componentType": 5123,
      "count": 6,
      "type": "SCALAR",
      "byteOffset": 78798
    }
  ],
  "bufferViews": [
    {
      "buffer": 0,
      "byteLength": 195600,
      "target": 34962,
      "byteStride": 12
    },
    {
      "buffer": 0,
      "byteOffset": 195600,
      "byteLength": 195600,
      "target": 34962,
      "byteStride": 12
    },
    {
      "buffer": 0,
      "byteOffset": 391200,
      "byteLength": 78810,
      "target": 34963
    }
  ],
  "buffers": [
    {
      "uri": "data:application/octet-stream;base64,",
      "byteLength": 470010
    }
  ]
}