{
  "asset": {
    "version": "2.0",
    "generator": "Sketchup glTF Exporter v1.2.6 by Centaur"
  },
  "scene": 0,
  "scenes": [
    {
      "nodes": [
        0
      ]
    }
  ],
  "samplers": [
    {
    }
  ],
  "nodes": [
    {
      "name": "root",
      "children": [
        1,
        18
      ]
    },
    {
      "name": "Main Courtyard - Assembly",
      "children": [
        2,
        3,
        4,
        5,
        6,
        7,
        8,
        9,
        10,
        11,
        12,
        15
      ]
    },
    {
      "mesh": 0
    },
    {
      "mesh": 1
    },
    {
      "mesh": 2
    },
    {
      "mesh": 3
    },
    {
      "mesh": 4
    },
    {
      "mesh": 5
    },
    {
      "mesh": 6
    },
    {
      "mesh": 7
    },
    {
      "mesh": 8
    },
    {
      "mesh": 9
    },
    {
      "children": [
        13,
        14
      ]
    },
    {
      "name": "Main Courtyard - Tower.stl",
      "mesh": 10
    },
    {
      "name": "Main Courtyard - Tower Crown.stl",
      "mesh": 11
    },
    {
      "children": [
        16,
        17
      ]
    },
    {
      "name": "Main Courtyard - Tower.stl",
      "mesh": 12
    },
    {
      "name": "Main Courtyard - Tower Crown.stl",
      "mesh": 13
    },
    {
      "name": "Great Tower - Assembly",
      "children": [
        19,
        22
      ]
    },
    {
      "name": "Great Tower - Base",
      "children": [
        20,
        21
      ]
    },
    {
      "mesh": 14
    },
    {
      "mesh": 15
    },
    {
      "name": "Great Tower - Main#1",
      "children": [
        23
      ]
    },
    {
      "mesh": 16
    }
  ],
  "materials": [
    {
      "pbrMetallicRoughness": {
        "baseColorFactor": [
          0.4045,
          0.4045,
          0.4045,
          1.0
        ],
        "metallicFactor": 0.1,
        "roughnessFactor": 0.9
      },
      "name": "Sumele_Jewelry"
    },
    {
      "pbrMetallicRoughness": {
        "baseColorFactor": [
          0.2176,
          0.2176,
          0.2176,
          1.0
        ],
        "metallicFactor": 0.1,
        "roughnessFactor": 0.9
      },
      "name": "default material",
      "doubleSided": true
    },
    {
      "pbrMetallicRoughness": {
        "baseColorFactor": [
          0.0119,
          0.2632,
          0.0119,
          1.0
        ],
        "metallicFactor": 0.1,
        "roughnessFactor": 0.9
      },
      "name": "0075_ForestGreen"
    }
  ],
  "meshes": [
    {
      "primitives": [
        {
          "attributes": {
            "POSITION": 0,
            "NORMAL": 1
          },
          "indices": 2,
          "mode": 4,
          "material": 0
        }
      ]
    },
    {
      "primitives": [
        {
          "attributes": {
            "POSITION": 0,
            "NORMAL": 1
          },
          "indices": 3,
          "mode": 4,
          "material": 0
        }
      ]
    },
    {
      "primitives": [
        {
          "attributes": {
            "POSITION": 0,
            "NORMAL": 1
          },
          "indices": 4,
          "mode": 4,
          "material": 0
        }
      ]
    },
    {
      "primitives": [
        {
          "attributes": {
            "POSITION": 0,
            "NORMAL": 1
          },
          "indices": 5,
          "mode": 4,
          "material": 0
        }
      ]
    },
    {
      "primitives": [
        {
          "attributes": {
            "POSITION": 0,
            "NORMAL": 1
          },
          "indices": 6,
          "mode": 4,
          "material": 0
        }
      ]
    },
    {
      "primitives": [
        {
          "attributes": {
            "POSITION": 0,
            "NORMAL": 1
          },
          "indices": 7,
          "mode": 4,
          "material": 0
        }
      ]
    },
    {
      "primitives": [
        {
          "attributes": {
            "POSITION": 0,
            "NORMAL": 1
          },
          "indices": 8,
          "mode": 4,
          "material": 0
        }
      ]
    },
    {
      "primitives": [
        {
          "attributes": {
            "POSITION": 0,
            "NORMAL": 1
          },
          "indices": 9,
          "mode": 4,
          "material": 0
        }
      ]
    },
    {
      "primitives": [
        {
          "attributes": {
            "POSITION": 0,
            "NORMAL": 1
          },
          "indices": 10,
          "mode": 4,
          "material": 0
        }
      ]
    },
    {
      "primitives": [
        {
          "attributes": {
            "POSITION": 0,
            "NORMAL": 1
          },
          "indices": 11,
          "mode": 4,
          "material": 0
        }
      ]
    },
    {
      "primitives": [
        {
          "attributes": {
            "POSITION": 0,
            "NORMAL": 1
          },
          "indices": 12,
          "mode": 4,
          "material": 1
        }
      ]
    },
    {
      "primitives": [
        {
          "attributes": {
            "POSITION": 0,
            "NORMAL": 1
          },
          "indices": 13,
          "mode": 4,
          "material": 1
        }
      ]
    },
    {
      "primitives": [
        {
          "attributes": {
            "POSITION": 0,
            "NORMAL": 1
          },
          "indices": 14,
          "mode": 4,
          "material": 1
        }
      ]
    },
    {
      "primitives": [
        {
          "attributes": {
            "POSITION": 0,
            "NORMAL": 1
          },
          "indices": 15,
          "mode": 4,
          "material": 1
        }
      ]
    },
    {
      "primitives": [
        {
          "attributes": {
            "POSITION": 0,
            "NORMAL": 1
          },
          "indices": 16,
          "mode": 4,
          "material": 0
        }
      ]
    },
    {
      "primitives": [
        {
          "attributes": {
            "POSITION": 0,
            "NORMAL": 1
          },
          "indices": 17,
          "mode": 4,
          "material": 2
        }
      ]
    },
    {
      "primitives": [
        {
          "attributes": {
            "POSITION": 0,
            "NORMAL": 1
          },
          "indices": 18,
          "mode": 4,
          "material": 0
        }
      ]
    }
  ],
  "accessors": [
    {
      "bufferView": 0,
      "componentType": 5126,
      "count": 22373,
      "type": "VEC3",
      "min": [
        -0.18507432989376763,
        -6.475017120000384e-05,
        -0.2784320464472165
      ],
      "max": [
        0.08950765682539293,
        0.09105816575856006,
        0.24182540256717028
      ]
    },
    {
      "bufferView": 1,
      "componentType": 5126,
      "count": 22373,
      "type": "VEC3",
      "min": [
        -0.9999999999999999,
        -1.0,
        -1.0
      ],
      "max": [
        0.9999999999999999,
        1.0,
        1.0
      ]
    },
    {
      "bufferView": 2,
      "componentType": 5123,
      "count": 228,
      "type": "SCALAR"
    },
    {
      "bufferView": 2,
      "componentType": 5123,
      "count": 2247,
      "type": "SCALAR",
      "byteOffset": 456
    },
    {
      "bufferView": 2,
      "componentType": 5123,
      "count": 2304,
      "type": "SCALAR",
      "byteOffset": 4950
    },
    {
      "bufferView": 2,
      "componentType": 5123,
      "count": 252,
      "type": "SCALAR",
      "byteOffset": 9558
    },
    {
      "bufferView": 2,
      "componentType": 5123,
      "count": 1020,
      "type": "SCALAR",
      "byteOffset": 10062
    },
    {
      "bufferView": 2,
      "componentType": 5123,
      "count": 912,
      "type": "SCALAR",
      "byteOffset": 12102
    },
    {
      "bufferView": 2,
      "componentType": 5123,
      "count": 702,
      "type": "SCALAR",
      "byteOffset": 13926
    },
    {
      "bufferView": 2,
      "componentType": 5123,
      "count": 864,
      "type": "SCALAR",
      "byteOffset": 15330
    },
    {
      "bufferView": 2,
      "componentType": 5123,
      "count": 984,
      "type": "SCALAR",
      "byteOffset": 17058
    },
    {
      "bufferView": 2,
      "componentType": 5123,
      "count": 1041,
      "type": "SCALAR",
      "byteOffset": 19026
    },
    {
      "bufferView": 2,
      "componentType": 5123,
      "count": 2076,
      "type": "SCALAR",
      "byteOffset": 21108
    },
    {
      "bufferView": 2,
      "componentType": 5123,
      "count": 11076,
      "type": "SCALAR",
      "byteOffset": 25260
    },
    {
      "bufferView": 2,
      "componentType": 5123,
      "count": 2076,
      "type": "SCALAR",
      "byteOffset": 47412
    },
    {
      "bufferView": 2,
      "componentType": 5123,
      "count": 11076,
      "type": "SCALAR",
      "byteOffset": 51564
    },
    {
      "bufferView": 2,
      "componentType": 5123,
      "count": 1212,
      "type": "SCALAR",
      "byteOffset": 73716
    },
    {
      "bufferView": 2,
      "componentType": 5123,
      "count": 60,
      "type": "SCALAR",
      "byteOffset": 76140
    },
    {
      "bufferView": 2,
      "componentType": 5123,
      "count": 7827,
      "type": "SCALAR",
      "byteOffset": 76260
    }
  ],
  "bufferViews": [
    {
      "buffer": 0,
      "byteLength": 268476,
      "target": 34962,
      "byteStride": 12
    },
    {
      "buffer": 0,
      "byteOffset": 268476,
      "byteLength": 268476,
      "target": 34962,
      "byteStride": 12
    },
    {
      "buffer": 0,
      "byteOffset": 536952,
      "byteLength": 91914,
      "target": 34963
    }
  ],
  "buffers": [
    {
      "uri": "data:application/octet-stream;base64,",
      "byteLength": 628866
    }
  ]
}