{
  "asset": {
    "version": "2.0",
    "generator": "Sketchup glTF Exporter v1.2.6 by Centaur"
  },
  "scene": 0,
  "scenes": [
    {
      "nodes": [
        0
      ]
    }
  ],
  "samplers": [
    {
    }
  ],
  "nodes": [
    {
      "name": "root",
      "children": [
        1
      ]
    },
    {
      "name": "St Enoch Station",
      "children": [
        2,
        3,
        4,
        5
      ]
    },
    {
      "name": "St Enoch Station v2.stl#3",
      "mesh": 0
    },
    {
      "name": "St Enoch Station Canopy.stl",
      "mesh": 1
    },
    {
      "name": "St Enoch Station Canopy.stl",
      "mesh": 2
    },
    {
      "mesh": 3
    }
  ],
  "materials": [
    {
      "pbrMetallicRoughness": {
        "baseColorFactor": [
          0.687,
          0.3889,
          0.3489,
          1.0
        ],
        "metallicFactor": 0.1,
        "roughnessFactor": 0.9
      },
      "name": "Material8"
    },
    {
      "pbrMetallicRoughness": {
        "baseColorFactor": [
          0.259,
          0.0802,
          0.0494,
          1.0
        ],
        "metallicFactor": 0.1,
        "roughnessFactor": 0.9
      },
      "name": "Material7"
    },
    {
      "pbrMetallicRoughness": {
        "baseColorFactor": [
          0.2176,
          0.2176,
          0.2176,
          1.0
        ],
        "metallicFactor": 0.1,
        "roughnessFactor": 0.9
      },
      "name": "default material",
      "doubleSided": true
    },
    {
      "pbrMetallicRoughness": {
        "baseColorFactor": [
          0.2195,
          0.2195,
          0.2195,
          0.5
        ],
        "metallicFactor": 0.1,
        "roughnessFactor": 0.9
      },
      "name": "Translucent Glass Gray",
      "alphaMode": "BLEND"
    },
    {
      "pbrMetallicRoughness": {
        "baseColorFactor": [
          0.3838,
          0.1062,
          0.0478,
          1.0
        ],
        "metallicFactor": 0.1,
        "roughnessFactor": 0.9
      },
      "name": "Tunnel Light Brown"
    },
    {
      "pbrMetallicRoughness": {
        "baseColorFactor": [
          0.0546,
          0.0127,
          0.0004,
          1.0
        ],
        "metallicFactor": 0.1,
        "roughnessFactor": 0.9
      },
      "name": "Tunnel Dark Brown"
    }
  ],
  "meshes": [
    {
      "primitives": [
        {
          "attributes": {
            "POSITION": 0,
            "NORMAL": 1
          },
          "indices": 2,
          "mode": 4,
          "material": 0
        },
        {
          "attributes": {
            "POSITION": 0,
            "NORMAL": 1
          },
          "indices": 3,
          "mode": 4,
          "material": 1
        },
        {
          "attributes": {
            "POSITION": 0,
            "NORMAL": 1
          },
          "indices": 4,
          "mode": 4,
          "material": 2
        }
      ]
    },
    {
      "primitives": [
        {
          "attributes": {
            "POSITION": 0,
            "NORMAL": 1
          },
          "indices": 5,
          "mode": 4,
          "material": 3
        }
      ]
    },
    {
      "primitives": [
        {
          "attributes": {
            "POSITION": 0,
            "NORMAL": 1
          },
          "indices": 6,
          "mode": 4,
          "material": 3
        }
      ]
    },
    {
      "primitives": [
        {
          "attributes": {
            "POSITION": 0,
            "NORMAL": 1
          },
          "indices": 7,
          "mode": 4,
          "material": 4
        },
        {
          "attributes": {
            "POSITION": 0,
            "NORMAL": 1
          },
          "indices": 8,
          "mode": 4,
          "material": 5
        }
      ]
    }
  ],
  "accessors": [
    {
      "bufferView": 0,
      "componentType": 5126,
      "count": 53296,
      "type": "VEC3",
      "min": [
        -0.12647912086157193,
        -0.0780000000000006,
        -0.18121183843534996
      ],
      "max": [
        0.12780291144118172,
        0.07700000000000001,
        0.17921756096489344
      ]
    },
    {
      "bufferView": 1,
      "componentType": 5126,
      "count": 53296,
      "type": "VEC3",
      "min": [
        -0.9999999999999925,
        -1.0,
        -0.9999999999999617
      ],
      "max": [
        0.9999999999999998,
        1.0,
        0.9999999999993878
      ]
    },
    {
      "bufferView": 2,
      "componentType": 5123,
      "count": 21336,
      "type": "SCALAR"
    },
    {
      "bufferView": 2,
      "componentType": 5123,
      "count": 19563,
      "type": "SCALAR",
      "byteOffset": 42672
    },
    {
      "bufferView": 2,
      "componentType": 5123,
      "count": 93429,
      "type": "SCALAR",
      "byteOffset": 81798
    },
    {
      "bufferView": 2,
      "componentType": 5123,
      "count": 58524,
      "type": "SCALAR",
      "byteOffset": 268656
    },
    {
      "bufferView": 2,
      "componentType": 5123,
      "count": 58524,
      "type": "SCALAR",
      "byteOffset": 385704
    },
    {
      "bufferView": 2,
      "componentType": 5123,
      "count": 486,
      "type": "SCALAR",
      "byteOffset": 502752
    },
    {
      "bufferView": 2,
      "componentType": 5123,
      "count": 252,
      "type": "SCALAR",
      "byteOffset": 503724
    }
  ],
  "bufferViews": [
    {
      "buffer": 0,
      "byteLength": 639552,
      "target": 34962,
      "byteStride": 12
    },
    {
      "buffer": 0,
      "byteOffset": 639552,
      "byteLength": 639552,
      "target": 34962,
      "byteStride": 12
    },
    {
      "buffer": 0,
      "byteOffset": 1279104,
      "byteLength": 504228,
      "target": 34963
    }
  ],
  "buffers": [
    {
      "uri": "data:application/octet-stream;base64,",
      "byteLength": 1783332
    }
  ]
}