<?xml version="1.0" encoding="utf-8"?>
<!-- Generator: Adobe Illustrator 25.3.1, SVG Export Plug-In . SVG Version: 6.00 Build 0)  -->
<svg version="1.1"
	 id="svg33" inkscape:version="0.92.3 (2405546, 2018-03-11)" sodipodi:docname="utterberry-standard.svg" xmlns:cc="http://creativecommons.org/ns#" xmlns:dc="http://purl.org/dc/elements/1.1/" xmlns:inkscape="http://www.inkscape.org/namespaces/inkscape" xmlns:rdf="http://www.w3.org/1999/02/22-rdf-syntax-ns#" xmlns:sodipodi="http://sodipodi.sourceforge.net/DTD/sodipodi-0.dtd" xmlns:svg="http://www.w3.org/2000/svg"
	 xmlns="http://www.w3.org/2000/svg" xmlns:xlink="http://www.w3.org/1999/xlink" x="0px" y="0px" viewBox="0 0 1493.1 271.8"
	 style="enable-background:new 0 0 1493.1 271.8;" xml:space="preserve">
<style type="text/css">
	.st0{fill:#2D074A;stroke:#000000;stroke-width:0.1;stroke-miterlimit:10;stroke-opacity:0;}
	.st1{stroke:#000000;stroke-width:0.1;stroke-miterlimit:10;stroke-opacity:0;}
	.st2{fill:none;stroke:#2D074A;stroke-width:2;}
	.st3{fill:#2D074A;}
</style>
<sodipodi:namedview  bordercolor="#666666" borderopacity="1" gridtolerance="10" guidetolerance="10" id="namedview35" inkscape:current-layer="layer101" inkscape:cx="2256.3954" inkscape:cy="21.24229" inkscape:pageopacity="0" inkscape:pageshadow="2" inkscape:window-height="2097" inkscape:window-maximized="1" inkscape:window-width="3757" inkscape:window-x="83" inkscape:window-y="35" inkscape:zoom="0.54125" objecttolerance="10" pagecolor="#ffffff" showgrid="false">
	</sodipodi:namedview>
<g id="layer101" transform="translate(-509.15586,-787.49827)">
	<path id="path2" inkscape:connector-curvature="0" class="st0" d="M1814,1058.6c-7.5-0.8-17-3.1-19.6-4.8c-1.1-0.7,0.2-3.9,6-15
		c6.4-12.4,7.6-14.1,9.3-13.5c1.1,0.3,5.2,0.8,9.2,1.1c6,0.4,8,0.2,11.7-1.6c5.2-2.5,9.1-7.3,11.7-14.2c2.6-6.7,2.4-8.4-1.5-18.1
		c-3.4-8-11.1-27.5-32.8-82.5c-5.6-14.5-10.5-26.3-10.8-26.3c-0.3,0-1.6,4.6-2.8,10.3c-1.3,5.6-2.5,10.9-2.8,11.8
		c-0.3,0.9-2.6,2-6.6,2.8c-10.8,2.2-22.2,9.3-29.4,18.3l-3.4,4.3V969v37.7h-20.5h-20.5v-67.5v-67.5h18h18l0.1,16.8v16.7l2.2-4.5
		c6.9-14.1,19.4-25.6,32.3-29.5c2.7-0.8,8-1.8,11.8-2.2c6.2-0.5,6.9-0.4,6.3,1c-0.6,1.5,1,1.7,16.7,1.7h17.4l9.7,29.3
		c10.3,30.9,13.9,42.6,17.5,57.2c1.3,5,2.4,9.1,2.5,9.3c0.3,0.3,2.4-8.3,4.5-17.8c1.5-7,9.7-37.2,14.4-53.5
		c1.3-4.4,3.4-11.7,4.6-16.2l2.3-8.3h19.3c10.7,0,19.4,0.3,19.4,0.8c0,0.4-2.5,7.9-5.5,16.7c-3.1,8.8-7.6,21.9-10,29
		c-2.4,7.2-7.4,21.6-11,32c-3.6,10.5-7.9,22.8-9.5,27.5c-12.2,36.4-16.8,47.4-24.1,58.1c-9,13.3-20.8,20.9-34.9,22.4
		c-3,0.3-6.8,0.7-8.5,0.9C1823.1,1059.3,1818.3,1059.1,1814,1058.6z"/>
	<path id="path4" inkscape:connector-curvature="0" class="st0" d="M567.2,1051.2c-13.8-3.1-24.9-9.2-34.5-18.9
		c-8.8-8.9-10-10.4-14.2-18.4c-5.2-9.8-7.8-18.8-8.9-31c-1-10.1-1-10,8.2-9c21.5,2.3,40.1,12.6,52.9,29.3
		c8.8,11.5,14.7,25.2,16,37.5c0.3,3,0.8,7,1.1,8.8l0.5,3.2l-7.8-0.1C576.2,1052.5,570.2,1051.9,567.2,1051.2z"/>
	<path id="path6" inkscape:connector-curvature="0" class="st0" d="M602.8,1044.1c-3.1-41.3-35.3-77.1-76.5-84.9
		c-4.2-0.8-9.7-1.5-12.3-1.5h-4.8v-30.1v-30.2l11.3,0.6c24.6,1.2,52.1,10.6,74.4,25.4c39.3,26.2,65.4,71.3,68,117.6l0.6,11.7h-30
		h-30L602.8,1044.1z"/>
	<path id="path8" inkscape:connector-curvature="0" class="st0" d="M679.2,1046c-0.1-23.5-10.2-58.7-22.6-78.8
		c-1.3-2.2-2.7-4.7-3.1-5.5c-1-2.1-10.2-14.8-13.8-19c-8.2-9.4-12.7-13.9-20.5-20.4c-10.5-8.8-13.7-11.1-22.5-16.3
		c-14.8-8.6-18.9-10.5-34-15.8c-12.9-4.5-34.9-8.4-47.2-8.5h-6.3v-11.8c0-14.5,2.2-28,6.1-37.5c5.2-12.5,4.6-12.1,15.3-11.2
		c5,0.4,15.4,1.9,23.1,3.5c34,6.8,65.9,21.3,95,43.3c7.1,5.4,33.6,31,37.5,36.2c0.8,1.1,3.1,4.1,5.1,6.5
		c8.9,11.2,20.5,30.8,28.7,48.6c9.3,20.4,16.5,49.3,18.8,75.5l0.7,7.7l-6.9,3.2c-11.8,5.5-19.9,7-37.6,7h-15.8V1046z"/>
	<path id="path10" inkscape:connector-curvature="0" class="st0" d="M753.9,1028.3c-0.4-1-0.7-3.2-0.7-4.9c0-1.8-0.7-7-1.5-11.7
		c-1.4-8.1-1.8-10-4.6-21.5c-3.5-14.8-10.5-32.9-19.9-51.7c-19.7-39.2-56.6-78.1-95-100.1c-26.1-14.9-57.4-26.3-83.5-30.2
		c-6-1-11.7-1.9-12.5-2.2c-3.9-1.2,15.2-12.4,27.3-16.1c4.2-1.2,12.7-1.6,44.5-1.9l39.4-0.5l11.6,6.8c10.8,6.2,35,22.7,39.7,27
		c1.1,1.1,4.5,4,7.5,6.6c23.8,20.3,46.2,47.7,63.6,77.8l4.9,8.5v37.5c0,28.1-0.3,39-1.4,43.5
		C770.4,1008.2,755.7,1033.1,753.9,1028.3z"/>
	<path id="path12" inkscape:connector-curvature="0" class="st1" d="M870.7,1009c-16.9-3.8-23-6.7-31.6-15.3
		c-8.9-8.8-14.4-20.3-17.5-36c-1.1-6-1.4-19.4-1.4-68.2v-60.8h11.4h11.5l0.4,62.3c0.3,54.4,0.6,62.9,2,67.7
		c4.8,15.6,13.4,25.3,25.7,28.9c7.3,2.2,21.4,1.7,28.5-1c6.8-2.5,16.1-11,18.7-16.9c6.7-15.1,6.8-15.9,6.8-81.7v-59.3h11.5h11.5V883
		c0,29.8-0.5,58.5-1,63.7c-2.3,22.7-7.5,35.5-19,47c-8.5,8.5-15.5,12.2-28.8,14.9C894.3,1009.7,874.8,1009.9,870.7,1009z"/>
	<path id="path14" inkscape:connector-curvature="0" class="st1" d="M1006.5,1007.8c-12.7-4.3-19.1-12.4-22.2-27.9
		c-0.7-3.2-1.1-21-1.1-45.7v-40.5h-10h-10v-9.5v-9.5h10h10v-13.4v-13.4l3.3-1c1.7-0.6,6.3-1.8,10.1-2.7c3.7-0.9,7.5-1.9,8.2-2.2
		c1.2-0.4,1.4,2.4,1.4,16.1v16.6h24.5h24.5v-13.5v-13.4l3.8-1c2-0.6,7.2-1.9,11.4-3c4.3-1.2,8-2.1,8.3-2.1c0.3,0,0.5,7.4,0.5,16.5
		v16.5h17.5h17.5v9.5v9.5h-17.6h-17.5l0.3,42.3l0.3,42.2l2.4,4.2c3.2,5.5,8.7,8.3,16.4,8.3c3,0,6.6-0.4,7.9-0.9
		c1.3-0.4,3.5-1.1,5.1-1.5l2.7-0.6v9.3v9.4l-6.7,1.7c-11.6,2.8-24.3,2-33.2-2.1c-5.8-2.6-12.6-10.3-15-16.9
		c-3.4-8.8-4.1-19.2-4.1-59.1v-36.3h-24.5h-24.6l0.3,41.3l0.3,41.3l2.5,4.8c1.4,2.7,3.8,5.8,5.3,6.9c3.7,2.8,13.5,3.4,20.7,1.3
		c2.9-0.9,5.5-1.6,5.7-1.6c0.2,0,0.3,4.3,0.3,9.5v9.5l-2.7,0.6c-1.6,0.3-4.4,1-6.3,1.5C1026.2,1010.3,1012.2,1009.8,1006.5,1007.8z"
		/>
	<path id="path16" inkscape:connector-curvature="0" class="st1" d="M1164.2,1008.3c-34.2-7.7-53.3-41.6-46.6-82.8
		c4.3-26.6,17.9-44,40.2-51.2c6.7-2.2,9.6-2.6,20.2-2.6s13.4,0.4,19.9,2.5c18.1,6.1,29,19.6,34.1,42.5c0.6,2.5,1.4,10,1.8,16.8
		l0.7,12.2h-47.2c-39.9,0-47.1,0.2-47.1,1.4c0,0.8,0.7,4.9,1.5,9c4.9,26,25.4,39,52.3,33.2c7.1-1.5,17.2-6.3,21.6-10.1
		c1.6-1.4,3.2-2.5,3.6-2.5c1.1,0,14,12.8,14,13.8c0,2.1-12.4,10.5-20.7,14C1201,1009.4,1177.3,1011.2,1164.2,1008.3z M1211.2,926
		c-0.1-10.1-5.6-23.1-12.1-28.7c-6-5.1-12.4-6.9-23.1-6.4c-10.6,0.4-16.6,2.7-23.1,8.7c-5.1,4.7-10.4,15.9-11.3,23.9l-0.7,6.2h35.2
		h35.1V926z"/>
	<path id="path18" inkscape:connector-curvature="0" class="st0" d="M1529.4,1007.7c-18.5-5-35-18.2-42.4-34
		c-6.3-13.5-8.8-29.7-6.9-44.8c3.8-30.4,20-51.1,45.6-58.3c7.1-2,30.4-1.8,37,0.3c19,6,30.8,19.2,36.6,40.9c1.3,5,2.1,12.5,2.6,23.2
		l0.6,15.7h-41.6h-41.7v3.3c0,7.1,7,16.6,15.5,21.3c10.3,5.6,30.3,3.7,39.8-3.9l3.9-3l11.1,11.1l11.1,11.2l-3.9,4
		c-4.5,4.6-14,9.5-24,12.3C1562.1,1010,1539.2,1010.4,1529.4,1007.7z M1567.2,925.4c0-8.5-5.4-19-11.8-22.7
		c-4.4-2.6-14.2-3.6-20-2.1c-8.5,2.3-15.4,11.9-16.6,22.9l-0.5,5.2h24.4h24.5V925.4z"/>
	<path id="path20" inkscape:connector-curvature="0" class="st0" d="M1340.2,919.1v-88.6l43.3,0.5c44.2,0.5,46.2,0.6,57.7,4.8
		c9.3,3.3,17.8,11.1,21.8,19.8c3.1,6.6,4.1,19.6,2.3,28c-2.3,10.8-10.9,23.4-18.6,27.4c-2.7,1.4-2.8,1.6-1,2.2
		c11.1,4,18.7,9.6,23.3,17.4c3.9,6.7,5.1,10.7,5.8,19.6c1.2,16.6-3.2,29.2-13.9,39.1c-6.6,6.3-15.5,11.5-23.4,13.9
		c-13.4,4.2-17.7,4.5-58,4.5h-39.3V919.1z M1402.6,981.5c0.8-3.7,2.5-14.9,3.1-20.3c0.9-7.3,1.4-7.9,6.1-6.6
		c4.1,1.1,19.4,1.5,19.4,0.5c0-0.3-2.3-2.6-5-5.1c-9.9-8.9-17.1-21.7-21-36.9c-3.9-15.5-1.9-25.5,7-35.7l4.1-4.7l-3.8-3.2
		c-2.1-1.8-5.8-5.5-8.3-8.1l-4.5-4.8l-8.2,8.2c-4.6,4.4-8.3,8.2-8.3,8.3c0,0.2,1.8,2.2,4,4.6c2.2,2.4,4.9,6.7,6,9.7
		c5,13.4,0.2,35.3-11.3,52.3c-3.3,4.9-12.3,14-13.8,14c-0.5,0-0.9,0.5-0.9,1c0,1.3,15.4,1.3,20.3-0.1c2.2-0.6,4.1-0.9,4.3-0.7
		c0.3,0.3,4.4,27.6,4.4,29.3c0,0.3,1.3,0.5,3,0.5C1401.5,983.7,1402.3,983.2,1402.6,981.5z"/>
	<path id="path22" inkscape:connector-curvature="0" class="st1" d="M1257.2,940.7v-66h10.5h10.5v13.8v13.7l3.5-6.2
		c8.1-14.1,26.2-25,40.4-24.1l4.9,0.3l-3.6,10.6l-3.6,10.7l-4.7,0.4c-11.3,1.1-25.8,12.4-32.1,25l-2.8,5.5v41.1v41.2h-11.5h-11.5
		V940.7z"/>
	<path id="path24" inkscape:connector-curvature="0" class="st0" d="M1617.2,939.2v-67.5h18h18l0.2,16.2l0.3,16.1l3.3-6.5
		c6.6-13.2,22.3-25.3,36.1-27.8c5.4-1,13.1-1.4,13.1-0.6c0,0.2-1.1,4.6-2.4,9.7c-1.3,5.2-3.4,13.7-4.5,19l-2.2,9.5l-6.1,1.3
		c-10.7,2.2-21.7,9-29.3,18.1l-3.5,4.2v37.9v37.9h-20.5h-20.5V939.2z"/>
	<path id="path26" inkscape:connector-curvature="0" class="st0" d="M772.9,880.8c-2.5-4.3-17.8-24.4-23.8-31.4
		c-12.8-14.8-34.2-35.3-46.4-44.2c-2.2-1.7-4.2-3.2-4.5-3.5c-0.4-0.5-10.6-7.8-17.7-12.8c-1.5-1,1.5-1.2,16.7-0.8
		c16.7,0.3,19.3,0.6,26.3,3c9.5,3.2,14.6,5.7,21.2,10.6c13.7,10.1,22.7,22.9,27.5,39c1.8,6.1,2.3,10.8,2.8,25.3
		c0.3,9.7,0.3,17.7,0.1,17.7C774.8,883.7,773.9,882.4,772.9,880.8z"/>
	<g>
		<ellipse class="st2" cx="1950.6" cy="856.9" rx="18.8" ry="19"/>
		<path class="st3" d="M1950.5,855.9c0.9,0,1.6-0.2,2-0.5c0.4-0.3,0.6-0.9,0.6-1.7c0-0.8-0.2-1.4-0.6-1.7c-0.4-0.3-1.1-0.5-2-0.5
			h-1.9v4.5H1950.5 M1948.6,859v6.6h-4.5v-17.5h6.9c2.3,0,4,0.4,5,1.2c1.1,0.8,1.6,2,1.6,3.7c0,1.2-0.3,2.1-0.8,2.8
			c-0.6,0.7-1.4,1.3-2.5,1.6c0.6,0.2,1.2,0.5,1.7,1s1,1.2,1.5,2.3l2.5,4.9h-4.8l-2.1-4.3c-0.4-0.9-0.9-1.5-1.3-1.8
			c-0.4-0.3-1-0.5-1.8-0.5H1948.6"/>
	</g>
</g>
</svg>
